<?xml version="1.0" standalone="no"?>
<!DOCTYPE svg PUBLIC "-//W3C//DTD SVG 20010904//EN"
 "http://www.w3.org/TR/2001/REC-SVG-20010904/DTD/svg10.dtd">
<svg version="1.0" xmlns="http://www.w3.org/2000/svg"
 width="260.000000pt" height="260.000000pt" viewBox="0 0 260.000000 260.000000"
 preserveAspectRatio="xMidYMid meet">
<metadata>
Created by potrace 1.11, written by Peter Selinger 2001-2013
</metadata>
<g transform="translate(0.000000,260.000000) scale(0.100000,-0.100000)"
fill="#000000" stroke="none">
<path d="M1090 2581 c0 -4 -16 -7 -35 -6 -20 2 -39 -3 -46 -11 -7 -8 -30 -14
-55 -14 -24 0 -44 -4 -44 -9 0 -14 -39 -24 -53 -13 -7 5 -33 17 -59 27 -46 17
-47 17 -95 -6 -47 -24 -93 -64 -93 -84 0 -6 -13 -23 -30 -38 -16 -15 -41 -50
-56 -77 -15 -27 -31 -47 -36 -44 -5 3 -12 -3 -15 -15 -3 -11 -9 -18 -14 -15
-15 9 -108 -95 -102 -114 3 -12 2 -13 -4 -4 -7 10 -14 8 -31 -6 -17 -15 -19
-21 -9 -31 9 -10 9 -11 -3 -6 -10 3 -19 -5 -28 -25 -8 -17 -17 -28 -22 -25 -7
4 -24 -24 -20 -34 1 -2 -5 -8 -14 -13 -9 -5 -14 -13 -11 -19 4 -5 1 -9 -5 -9
-6 0 -9 -4 -5 -9 3 -6 -2 -14 -11 -19 -9 -5 -15 -12 -15 -15 3 -21 0 -27 -10
-22 -6 4 -9 1 -8 -6 3 -17 -11 -52 -23 -60 -5 -3 -10 -12 -12 -20 -1 -8 -8
-24 -14 -36 -7 -13 -9 -23 -5 -23 4 0 1 -5 -7 -10 -8 -5 -15 -17 -16 -27 0
-10 -4 -26 -8 -35 -5 -10 -9 -29 -10 -42 0 -13 -3 -24 -6 -24 -16 1 -19 -5
-10 -27 7 -18 6 -23 -3 -19 -10 3 -12 -13 -11 -66 1 -48 -2 -70 -10 -70 -9 0
-12 -43 -12 -155 -1 -85 3 -155 7 -155 4 0 8 -8 8 -18 1 -49 9 -110 15 -121 4
-6 4 -15 1 -21 -3 -5 0 -10 7 -10 11 0 10 -2 0 -9 -11 -7 -11 -9 2 -14 10 -4
16 -19 16 -42 0 -19 4 -35 10 -35 5 0 7 -6 4 -14 -3 -7 1 -20 9 -27 8 -8 13
-22 11 -31 -1 -9 4 -19 12 -22 8 -3 14 -13 14 -21 0 -9 3 -14 8 -12 4 3 8 -6
9 -20 0 -14 7 -29 15 -34 7 -5 10 -9 5 -9 -8 0 19 -46 41 -69 7 -7 11 -20 8
-28 -3 -8 -1 -11 4 -8 6 3 10 -1 10 -9 0 -9 6 -16 13 -16 10 0 55 -64 45 -66
-7 -1 31 -34 41 -34 6 0 8 -7 5 -15 -6 -14 6 -20 29 -16 5 1 6 -3 2 -9 -3 -5
-1 -10 5 -10 6 0 9 -3 7 -7 -2 -5 6 -18 19 -31 13 -12 24 -20 24 -16 0 4 8 -3
19 -14 10 -12 21 -19 25 -15 3 3 6 1 6 -6 0 -25 90 -88 109 -76 5 2 8 -3 7
-12 0 -10 4 -18 10 -18 6 0 19 -8 29 -18 9 -10 24 -16 31 -13 8 3 14 -1 14
-10 0 -10 6 -14 15 -10 9 3 18 -1 21 -9 3 -7 20 -17 37 -21 17 -3 37 -12 44
-20 8 -7 21 -10 30 -7 13 5 15 2 10 -11 -6 -15 -2 -17 27 -13 26 4 33 1 29 -9
-3 -8 -1 -14 3 -15 5 0 25 -2 44 -5 19 -3 49 -5 66 -4 20 0 34 -5 38 -15 4
-11 14 -14 33 -11 15 3 32 2 37 -3 14 -11 388 -11 401 0 6 4 20 7 30 5 11 -2
23 2 27 8 4 7 43 11 95 12 51 1 113 8 148 19 33 9 62 16 64 15 2 -1 7 3 10 8
3 6 24 13 46 15 39 4 171 67 164 77 -4 5 8 21 44 61 9 10 17 23 17 29 0 12 28
46 98 119 28 30 52 60 52 66 0 24 22 75 30 70 5 -3 7 3 5 15 -2 11 -1 19 3 19
22 -3 32 3 32 21 0 12 7 20 16 20 14 0 14 3 4 16 -8 8 -9 14 -4 12 5 -2 10 1
11 6 0 5 8 13 16 18 9 5 14 17 12 29 -3 15 0 19 10 15 10 -4 15 1 15 15 0 11
6 22 14 25 8 3 12 12 10 19 -3 7 -1 16 5 19 6 4 8 13 5 20 -3 7 2 16 11 20 12
4 15 13 11 31 -5 20 -3 23 10 18 14 -5 16 -1 12 20 -3 16 0 31 9 38 10 9 10
15 2 25 -7 9 -8 14 -1 14 5 0 8 9 5 20 -4 15 -1 19 9 15 11 -4 14 3 13 32 -2
44 4 65 15 58 4 -3 7 92 7 210 0 118 -3 212 -6 211 -3 -2 -12 2 -19 10 -7 8
-9 14 -4 14 14 0 8 70 -7 80 -8 4 -12 17 -8 29 3 12 1 24 -4 27 -5 3 -9 14 -9
25 0 11 -3 18 -7 16 -7 -5 -11 13 -13 66 -1 9 -8 17 -17 17 -9 0 -13 6 -10 15
4 8 2 17 -3 20 -6 4 -10 15 -10 26 0 10 -4 19 -10 19 -5 0 -10 7 -10 16 0 8
-4 12 -10 9 -6 -4 -7 1 -3 11 5 13 3 15 -7 9 -9 -6 -11 -4 -5 5 5 8 1 18 -10
27 -11 7 -15 13 -9 13 5 0 3 4 -4 9 -12 7 -18 24 -21 54 -1 4 -7 7 -15 7 -8 0
-16 10 -20 23 -7 28 -41 69 -50 60 -3 -3 -6 1 -6 10 0 9 -4 17 -10 17 -5 0
-10 5 -10 11 0 16 -29 41 -40 34 -6 -3 -7 1 -4 9 4 11 0 16 -15 16 -13 0 -18
5 -15 13 5 13 -42 64 -54 60 -4 -2 -7 3 -7 10 0 6 -4 12 -10 12 -5 0 -26 15
-45 33 -19 17 -40 32 -47 32 -7 0 -13 6 -13 14 0 8 -9 12 -25 11 -14 -2 -23 2
-22 8 1 7 -6 11 -15 11 -10 -1 -18 4 -18 11 0 7 -11 16 -25 19 -14 4 -25 11
-25 16 0 5 -6 7 -13 4 -7 -2 -23 5 -36 17 -12 11 -25 18 -28 15 -3 -3 -13 0
-21 7 -13 10 -14 9 -7 -2 5 -9 -5 -5 -22 7 -17 12 -41 22 -53 22 -12 0 -31 5
-43 12 -12 7 -32 11 -45 9 -14 -1 -21 2 -20 11 4 16 -16 18 -289 23 -123 2
-223 1 -223 -4z"/>
</g>
</svg>
